<svg xmlns="http://www.w3.org/2000/svg" version="1.1" xmlns:xlink="http://www.w3.org/1999/xlink" xmlns:svgjs="http://svgjs.dev/svgjs" width="100%" height="100%" viewBox="0 0 1000 600"><rect width="1000" height="600" x="0" y="0" fill="#000000"/><g><circle r="166.66666666666666" cx="348.2784067789714" cy="370.50057452447504" fill="#8aaae5" transform="matrix(0.6882818158140263,0,0,0.6882818158140263,0,44.991200015657725)"/><path d="M300.89480144875716 440.3062940479067L300.89480144875716 440.3062940479067Q299.45193879657387 444.89459728184977 294.3442050078448 444.89459728184977Q289.2653284721594 444.89459728184977 282.83016104342175 439.26743293833476L282.83016104342175 439.26743293833476Q289.0633277008538 421.0007917616936 309.20569032533325 380.36977947621074Q329.3480529498127 339.76762444377147 335.37921883593907 319.5964045662484L335.37921883593907 319.5964045662484Q336.2160791742054 316.2778204662267 336.2160791742054 315.036958585349L336.2160791742054 315.036958585349Q336.2160791742054 311.920375256633 331.65663319330605 305.4852078278953L331.65663319330605 305.4852078278953L329.98291251677335 303.1766275844019L330.38691405938465 300.49290305134093Q348.04755292210876 295.50059827478657 369.45963468050957 295.50059827478657L369.45963468050957 295.50059827478657L382.1279687666793 296.3374586130529Q384.407691757129 299.4540419417689 385.67741089105033 305.8892093705066L385.67741089105033 305.8892093705066Q388.995994991072 321.6741267853924 388.995994991072 387.12237668842874L388.995994991072 387.12237668842874Q388.995994991072 412.4879021138119 393.3534402006657 422.87651320953194L393.3534402006657 422.87651320953194Q395.02716087719836 426.8010996234707 396.6720243006874 426.8010996234707Q398.3457449772201 426.8010996234707 406.8586346251018 422.64565518518265L406.8586346251018 422.64565518518265L409.5712164112065 421.404793304305L413.7266608494945 428.8788218426147Q405.8197735155298 436.58370840527374 396.1525937459014 441.0565826270421Q386.48541397627304 445.50059959576674 378.4053831240463 445.50059959576674L378.4053831240463 445.50059959576674Q357.39730290825685 445.50059959576674 357.39730290825685 412.89190365642327L357.39730290825685 412.89190365642327L357.39730290825685 396.4721266745768Q352.00099658909113 395.23126479369915 341.0063831794541 395.23126479369915Q329.98291251677335 395.23126479369915 316.88171963494864 397.30898701284315L316.88171963494864 397.30898701284315Q306.49310853922856 421.404793304305 300.89480144875716 440.3062940479067ZM323.54774508803564 382.3609299362237L357.83016170391187 382.3609299362237L358.0321624752175 358.23626639171823Q358.0321624752175 326.66643156194675 355.3195806891128 315.44096012796035L355.3195806891128 315.44096012796035Q353.6747172656238 315.44096012796035 352.83785692735745 315.8738189236154L352.83785692735745 315.8738189236154Q347.00869181253677 331.8607371098068 341.9298152768514 342.9707795316185Q336.8509387411661 354.08082195343025 330.9063446141707 366.662584280469Q324.990607740219 379.24434660750774 323.54774508803564 382.3609299362237L323.54774508803564 382.3609299362237Z " fill="#000000" transform="matrix(0.6882818158140263,0,0,0.6882818158140263,0,44.991200015657725)"/><path d="M615.7611890342188 440.4736027319557L615.7611890342188 440.4736027319557Q614.3648010007347 444.91411667843516 609.4215873622009 444.91411667843516Q604.5063014843369 444.91411667843516 598.2784108549977 439.4682033478472L598.2784108549977 439.4682033478472Q604.310807159649 421.78993084393835 623.8043841070872 382.46764382102583Q643.2979610545253 343.17328455878305 649.1348630344888 323.65177985067527L649.1348630344888 323.65177985067527Q649.9447680939096 320.4400873736618 649.9447680939096 319.23919366486547L649.9447680939096 319.23919366486547Q649.9447680939096 316.2229955125398 645.5321819080999 309.99510488320067L645.5321819080999 309.99510488320067L643.9123717892584 307.7608840296261L644.3033604386338 305.16360228734567Q661.3951499684794 300.3320996914906 682.1175483853835 300.3320996914906L682.1175483853835 300.3320996914906L694.377835319374 301.14200475091144Q696.5841284122789 304.1582029032371 697.8129498817449 310.3860935325762L697.8129498817449 310.3860935325762Q701.0246423587583 325.6625786188924 701.0246423587583 389.0027398177315L701.0246423587583 389.0027398177315Q701.0246423587583 413.5512414463821 705.2417342198803 423.6052352874676L705.2417342198803 423.6052352874676Q706.861544338722 427.40341073854444 708.4534266968938 427.40341073854444Q710.0732368157354 427.40341073854444 718.3119262132916 423.3818132021102L718.3119262132916 423.3818132021102L720.9371357162416 422.18091949331387L724.958733252676 429.41420950676155Q717.306526829183 436.8709216055667 707.9507270048395 441.19972450936746Q698.594927180496 445.5005996524985 690.775154192985 445.5005996524985L690.775154192985 445.5005996524985Q670.4437444254564 445.5005996524985 670.4437444254564 413.9422300957576L670.4437444254564 413.9422300957576L670.4437444254564 398.05133427470855Q665.2212531802257 396.85044056591215 654.580776365077 396.85044056591215Q643.9123717892584 396.85044056591215 631.2331684452226 398.86123933412927L631.2331684452226 398.86123933412927Q621.1791746041371 422.18091949331387 615.7611890342188 440.4736027319557ZM637.6844811599192 384.39465930723395L670.8626608355016 384.39465930723395L671.0581551601894 361.04705138737967Q671.0581551601894 330.4940812147474 668.4329456572392 319.63018231424104L668.4329456572392 319.63018231424104Q666.8410632990674 319.63018231424104 666.0311582396466 320.04909872428624L666.0311582396466 320.04909872428624Q660.3897505843707 335.52107813529017 655.4744647065068 346.2732659931178Q650.5591788286428 357.02545385094544 644.8060601306881 369.2019575029268Q639.0808691934034 381.3784611549082 637.6844811599192 384.39465930723395L637.6844811599192 384.39465930723395ZM781.6520874121308 302.7338871090833L781.6520874121308 302.7338871090833Q781.6520874121308 318.0382999560691 771.4025992463573 362.6668615062212L771.4025992463573 362.6668615062212Q783.46739185566 354.00925569861977 793.2141803293791 354.00925569861977Q802.9609688030981 354.00925569861977 809.9149812098491 362.16416181416696Q816.8410658559302 370.31906792971415 816.8410658559302 386.99194104951437L816.8410658559302 386.99194104951437Q816.8410658559302 414.94762947986624 805.8933836734149 430.2241145661824Q794.9177737302297 445.5005996524985 779.2502999945381 445.5005996524985L779.2502999945381 445.5005996524985Q773.4133980145745 445.5005996524985 767.4647849919322 444.10421161901434Q761.5440997299596 442.70782358553026 758.5279015776339 441.0880134666887L758.5279015776339 441.0880134666887L755.5117034253082 439.6916254332046Q742.6370057565847 444.10421161901434 730.3767188225943 444.10421161901434L730.3767188225943 444.10421161901434Q729.1758251137979 443.09881223490584 729.1758251137979 434.35742314529534Q729.1758251137979 425.6160340556848 740.4307126636799 376.4352475163745Q751.6856002135618 327.2823887377339 751.6856002135618 309.18519982377984L751.6856002135618 309.18519982377984Q751.6856002135618 305.97350734676644 750.6802008294532 300.94651042622365L750.6802008294532 300.94651042622365Q766.3756023258146 295.5005970956356 780.6466880280221 295.5005970956356L780.6466880280221 295.5005970956356Q781.6520874121308 298.3213009232735 781.6520874121308 302.7338871090833ZM779.8367829686014 371.10104522846524L779.8367829686014 371.10104522846524Q776.010679756855 371.10104522846524 768.3864010940317 374.7316541155239L768.3864010940317 374.7316541155239Q759.1423123123669 413.7467357710699 758.3324072529462 430.6430309762276L758.3324072529462 430.6430309762276Q764.3648035575974 433.240312718508 769.7827891275158 433.240312718508L769.7827891275158 433.240312718508Q777.4349955510087 433.240312718508 782.5457757535605 419.1647213409882Q787.684483716782 405.0891299634684 787.684483716782 388.10905147630166Q787.684483716782 371.10104522846524 779.8367829686014 371.10104522846524ZM888.2244221276378 416.76293392339556L888.2244221276378 416.76293392339556Q888.2244221276378 429.41420950676155 877.0533178597649 437.45740457963Q865.9101413525617 445.5005996524985 851.6390556503542 445.5005996524985Q837.3400421874769 445.5005996524985 829.0175695079116 439.4682033478472Q820.6671690676767 433.4358070431958 820.6671690676767 428.82772653269825L820.6671690676767 428.82772653269825Q820.6671690676767 426.0070227050603 827.7049647564365 419.6674210330425Q834.7427604451965 413.32781936102464 839.5742630410515 411.93143132754057L839.5742630410515 411.93143132754057Q849.6282568821371 419.360215665676 856.0516418361639 435.4466058114129L856.0516418361639 435.4466058114129Q863.4804261742994 434.8601228373496 863.4804261742994 428.408810122653L863.4804261742994 428.408810122653Q863.4804261742994 419.1647213409882 847.1985417038748 402.18464285382146Q830.91665723345 385.17663660598504 830.91665723345 375.12264276489947Q830.91665723345 365.0686489238139 839.965251690427 359.5389523112168Q849.013846147404 354.00925569861977 861.7768327734487 354.00925569861977Q874.5398193994935 354.00925569861977 880.9911321141901 358.53355292710825Q887.414517068217 363.0578501555968 887.414517068217 370.8217676217684Q887.414517068217 378.55775732727034 875.1542301342266 392.21443229474494L875.1542301342266 392.21443229474494Q876.5506181677107 393.63874808889875 878.7848390212852 395.95675222448233Q880.9911321141901 398.2468285993963 884.5938132405792 404.6981413140928Q888.2244221276378 411.12152626811974 888.2244221276378 416.76293392339556ZM868.9263395048874 385.17663660598504Q877.3605232271315 377.94334659253735 877.3605232271315 370.90555090377745Q877.3605232271315 363.86775521501755 867.7254457960911 363.86775521501755L867.7254457960911 363.86775521501755Q863.0894375249238 363.86775521501755 860.0732393725981 365.7947707012256Q857.0570412202725 367.693858426764 857.0570412202725 370.0956458443567L857.0570412202725 370.0956458443567Q857.0570412202725 374.5361597908361 865.9101413525617 382.57935486370457L865.9101413525617 382.57935486370457L868.9263395048874 385.17663660598504ZM940.8961787506584 356.4389708768821L960.4176834587662 356.4389708768821Q959.9987670487209 361.46596779742487 956.9825688963953 368.08484707613957L956.9825688963953 368.08484707613957Q949.358290233572 367.3028697773884 942.5159888694999 367.3028697773884L942.5159888694999 367.3028697773884L938.8853799824411 367.3028697773884Q929.6412912007764 412.1269256522283 929.6412912007764 423.1863188774224L929.6412912007764 423.1863188774224Q929.6412912007764 429.02322085738604 932.1547896610479 429.02322085738604Q934.6682881213193 429.02322085738604 945.5321870218255 423.9962239368432L945.5321870218255 423.9962239368432L949.1627959088843 430.6430309762276Q931.261101319618 445.5005996524985 915.9846162333018 445.5005996524985L915.9846162333018 445.5005996524985Q908.946820544542 445.5005996524985 904.4225233160536 441.0880134666887Q899.8982260875649 436.6754272808789 899.8982260875649 429.3304262247525Q899.8982260875649 421.9854251686261 901.6018194884156 412.74133638696134Q903.3054128892661 403.49724760529654 906.3216110415918 390.1198502445188Q909.3378091939175 376.742452883741 910.7341972274015 368.50376348618477L910.7341972274015 368.50376348618477Q903.3054128892661 369.0902464602481 899.6748040022075 369.7046571949811L899.6748040022075 369.7046571949811Q899.283815352832 367.3028697773884 899.283815352832 363.16956119827546Q899.283815352832 359.03625261916255 899.8982260875649 356.4389708768821L899.8982260875649 356.4389708768821L912.5495016709309 356.4389708768821Q914.1693117897725 345.57507197637574 914.1693117897725 335.9120667846657L914.1693117897725 335.9120667846657L913.9738174650847 329.6841761553266L913.9738174650847 329.09769318126325Q929.6412912007764 323.65177985067527 943.5213882536085 323.65177985067527L943.5213882536085 323.65177985067527Q944.3312933130293 327.6733773871095 944.3312933130293 333.7057736917608Q944.3312933130293 339.7381699964122 940.8961787506584 356.4389708768821L940.8961787506584 356.4389708768821ZM962.8194708763589 443.7132229696388L962.8194708763589 443.7132229696388L961.4230828428747 443.7132229696388Q961.0041664328295 442.0934128507972 961.0041664328295 436.36822191351246Q961.0041664328295 430.6430309762276 966.4500797634174 405.50804637351365Q971.8680653333358 380.3730617707997 971.8680653333358 376.742452883741L971.8680653333358 376.742452883741Q971.8680653333358 370.5145622544019 966.2545854387297 363.0578501555968L966.2545854387297 363.0578501555968L964.4392809952004 360.6560627380041L964.6347753198883 358.030853235054Q975.4986742203945 355.0146550827283 999.432765114312 355.0146550827283L999.432765114312 355.0146550827283Q1001.8345525319048 360.2650740886286 1001.8345525319048 369.7046571949811L1001.8345525319048 369.7046571949811Q1004.0408456248097 366.07404830792245 1011.0786413135696 360.0416520032711Q1018.1164370023295 354.00925569861977 1025.5731491011347 354.00925569861977L1025.5731491011347 354.00925569861977Q1036.4091202409713 354.00925569861977 1036.4091202409713 372.91634967199457L1036.4091202409713 372.91634967199457Q1035.403720856863 374.1172433807909 1033.700127456012 376.044258866999Q1031.9965340551616 377.94334659253735 1026.8578260919398 381.3784611549082Q1021.7470458893882 384.78564795660947 1016.9155432935332 385.59555301603024L1016.9155432935332 385.59555301603024Q1016.7200489688454 385.59555301603024 1013.5083564918319 380.14963968544225Q1010.2687362541488 374.7316541155239 1008.6768538959769 374.7316541155239L1008.6768538959769 374.7316541155239Q1003.6498569754341 376.5469585590532 999.8237537636877 380.76405042017524L999.8237537636877 380.76405042017524Q990.5796649820228 422.37641381800165 990.5796649820228 434.6646285126618L990.5796649820228 434.6646285126618Q990.5796649820228 439.0772146984716 990.7751593067106 440.89251914200094L990.7751593067106 440.89251914200094Q983.7373636179508 443.7132229696388 962.8194708763589 443.7132229696388ZM1091.9295084522992 359.8461576785833L1091.9295084522992 359.8461576785833Q1092.3204971016748 359.45516902920775 1094.1358015452042 354.62366643335275L1094.1358015452042 354.62366643335275Q1103.5753846515568 354.62366643335275 1119.4662804726058 360.2650740886286L1119.4662804726058 360.2650740886286Q1114.439283552063 376.9379472084288 1111.4230853997374 395.14684716506156Q1108.4068872474118 413.32781936102464 1108.4068872474118 421.0917368271963Q1108.4068872474118 428.82772653269825 1110.0266973662533 428.82772653269825L1110.0266973662533 428.82772653269825Q1111.2275910750495 428.82772653269825 1118.8518697378731 425.00162332095175L1118.8518697378731 425.00162332095175L1121.2815849161352 423.80072961215546L1124.8842660425244 430.83852530091536Q1123.0968893596646 432.4304076590872 1120.1644744893479 434.8601228373496Q1117.2599873797012 437.2619102549422 1109.2167923068328 441.3952188340552Q1101.1735972339643 445.5005996524985 1094.7222845192678 445.5005996524985L1094.7222845192678 445.5005996524985Q1082.2665032605892 445.5005996524985 1080.2557044923724 434.2457121026166L1080.2557044923724 434.2457121026166Q1067.381006823649 445.5005996524985 1057.0198076151964 445.5005996524985Q1046.6865361674145 445.5005996524985 1039.5370294359755 437.45740457963Q1032.3875227045369 429.41420950676155 1032.3875227045369 412.1269256522283L1032.3875227045369 412.1269256522283Q1032.3875227045369 385.17663660598504 1043.4469159297314 369.5929461523024Q1054.5063091549255 354.00925569861977 1070.2017106512867 354.00925569861977L1070.2017106512867 354.00925569861977Q1081.4565982011686 354.00925569861977 1091.9295084522992 359.8461576785833ZM1069.0008169424905 428.408810122653L1069.0008169424905 428.408810122653Q1073.8323195383455 428.408810122653 1079.8647158429967 424.61063467157624L1079.8647158429967 424.61063467157624Q1081.2611038764808 396.23602983117917 1089.3042989493492 368.50376348618477L1089.3042989493492 368.50376348618477Q1083.271902644698 365.87855398323467 1079.0548107835757 365.87855398323467L1079.0548107835757 365.87855398323467Q1071.8215207701282 365.87855398323467 1066.682812806907 380.0658564034332Q1061.544104843685 394.22523106296205 1061.544104843685 411.3170205928075Q1061.544104843685 428.408810122653 1069.0008169424905 428.408810122653ZM1174.7632465985766 364.06324953970534L1174.7632465985766 364.06324953970534Q1166.7200515257082 364.06324953970534 1161.8885489298532 377.4406469004831Q1157.0570463339982 390.8180442612608 1157.0570463339982 406.09452934757695L1157.0570463339982 406.09452934757695Q1157.0570463339982 430.2241145661824 1171.9425427709389 430.2241145661824L1171.9425427709389 430.2241145661824Q1176.7740453667939 430.2241145661824 1182.192030936712 427.9061104305987Q1187.6379442673 425.6160340556848 1190.8496367443136 423.3818132021102L1190.8496367443136 423.3818132021102L1193.8658348966392 420.9800257845176L1198.5018431678063 427.20791641385665Q1196.8820330489648 429.41420950676155 1192.0505304531098 433.04481839382026Q1187.2190278572548 436.6754272808789 1183.001935996133 439.0772146984716Q1178.7848441350106 441.4790021160643 1172.1380370956263 443.4898008842814Q1165.519157816912 445.5005996524985 1159.0678451022154 445.5005996524985L1159.0678451022154 445.5005996524985Q1143.4003713665234 445.5005996524985 1135.5526706183427 435.2511114867251Q1127.7049698701621 425.00162332095175 1127.7049698701621 407.71433946641855L1127.7049698701621 407.71433946641855Q1127.7049698701621 383.7802485725009 1140.886872906252 368.89475213556034Q1154.0408481816726 354.00925569861977 1174.7632465985766 354.00925569861977L1174.7632465985766 354.00925569861977Q1188.2244272413636 354.00925569861977 1196.1838390322227 360.15336304594985Q1204.1153230624127 366.2974703932799 1204.1153230624127 375.2343538075782Q1204.1153230624127 384.1712372218765 1198.5018431678063 390.622549936573L1198.5018431678063 390.622549936573Q1193.4748462472635 390.622549936573 1186.8280392078796 388.4162568436682Q1180.1812321684952 386.1820359900936 1176.7740453667939 382.97034351308014L1176.7740453667939 382.97034351308014L1179.7902435191195 365.2920710091713Q1177.97493907559 364.06324953970534 1174.7632465985766 364.06324953970534ZM1251.78801052556 356.4389708768821L1271.2815874729981 356.4389708768821Q1270.8905988236224 361.46596779742487 1267.8744006712968 368.08484707613957L1267.8744006712968 368.08484707613957Q1260.222194247804 367.3028697773884 1253.3798928837318 367.3028697773884L1253.3798928837318 367.3028697773884L1249.7772117573427 367.3028697773884Q1240.5051952150084 412.1269256522283 1240.5051952150084 423.1863188774224L1240.5051952150084 423.1863188774224Q1240.5051952150084 429.02322085738604 1243.0186936752798 429.02322085738604Q1245.5321921355512 429.02322085738604 1256.3960910360574 423.9962239368432L1256.3960910360574 423.9962239368432L1260.0266999231162 430.6430309762276Q1242.12500533385 445.5005996524985 1226.848520247534 445.5005996524985L1226.848520247534 445.5005996524985Q1219.810724558774 445.5005996524985 1215.2864273302853 441.0880134666887Q1210.762130101797 436.6754272808789 1210.762130101797 429.3304262247525Q1210.762130101797 421.9854251686261 1212.4657235026475 412.74133638696134Q1214.1693169034984 403.49724760529654 1217.1855150558235 390.1198502445188Q1220.2017132081496 376.742452883741 1221.6260290023033 368.50376348618477L1221.6260290023033 368.50376348618477Q1214.1693169034984 369.0902464602481 1210.5666357771092 369.7046571949811L1210.5666357771092 369.7046571949811Q1210.147719367064 367.3028697773884 1210.147719367064 363.16956119827546Q1210.147719367064 359.03625261916255 1210.762130101797 356.4389708768821L1210.762130101797 356.4389708768821L1223.413405685163 356.4389708768821Q1225.0332158040046 345.57507197637574 1225.0332158040046 335.9120667846657L1225.0332158040046 335.9120667846657L1224.8377214793168 329.6841761553266L1224.8377214793168 329.09769318126325Q1240.5051952150084 323.65177985067527 1254.3852922678402 323.65177985067527L1254.3852922678402 323.65177985067527Q1255.1951973272612 327.6733773871095 1255.1951973272612 333.7057736917608Q1255.1951973272612 339.7381699964122 1251.78801052556 356.4389708768821L1251.78801052556 356.4389708768821Z " fill="#8aaae5" transform="matrix(0.6882818158140263,0,0,0.6882818158140263,0,44.991200015657725)"/></g></svg>